<?xml version="1.0" encoding="UTF-8"?>
<svg width="257px" height="33px" viewBox="0 0 257 33" version="1.1" xmlns="http://www.w3.org/2000/svg" xmlns:xlink="http://www.w3.org/1999/xlink">
    <!-- Generator: Sketch 51.1 (57501) - http://www.bohemiancoding.com/sketch -->
    <title>Atlassian-horizontal-blue-rgb</title>
    <desc>Created with Sketch.</desc>
    <defs></defs>
    <g id="Page-1" stroke="none" stroke-width="1" fill="none" fill-rule="evenodd">
        <g id="ATLASSIAN" transform="translate(-22.000000, -134.000000)" fill="#FFFFFF" fill-rule="nonzero">
            <g id="Atlassian-horizontal-blue-rgb" transform="translate(22.000000, 134.000000)">
                <path d="M8.91917414,14.3663316 C8.73748172,14.1070784 8.44474084,13.9702246 8.14725815,14.0054675 C7.84977546,14.0407104 7.59081891,14.2429241 7.46442662,14.5386762 L0.0929992642,30.6094354 C-0.0435373471,30.9072292 -0.0289421687,31.2608764 0.131573038,31.5440937 C0.292088244,31.827311 0.575637316,31.9997176 0.880968307,31.9997491 L11.1453019,31.9997491 C11.4811783,32.008252 11.7900788,31.8000485 11.9332709,31.4686462 C14.1474179,26.4796965 12.8055665,18.8940208 8.91917414,14.3663316 Z" id="Shape"></path>
                <path d="M14.1234736,20.9417516 L19.3641636,31.4813149 C19.5221963,31.7991685 19.8452509,31.9999664 20.1986528,32 L31.067021,32 C31.3903782,31.9999692 31.6906674,31.8315937 31.8606591,31.5549983 C32.0306509,31.2784029 32.0461077,30.9330244 31.9015102,30.6421933 C31.9015102,30.6421933 17.2798925,1.23319035 16.9124245,0.497609509 C16.7641714,0.192078033 16.4551723,-0.00124838993 16.1170908,6.06835896e-06 C15.7790094,0.00126052665 15.4714376,0.196874749 15.3254309,0.503498082 C11.3681406,6.62630159 10.9114091,14.3926302 14.1234736,20.9417516 Z" id="Shape"></path>
                <path d="M142.117667,14.4911898 C142.117667,18.2159021 143.882189,21.1730979 150.784189,22.4786284 C154.902048,23.3251539 155.764618,23.976038 155.764618,25.3201324 C155.764618,26.6256628 154.900127,27.4707775 151.99976,27.4707775 C148.4943,27.40906 145.058924,26.4987923 142,24.8211526 L142,30.8879188 C144.078621,31.8863486 146.82338,33 151.921475,33 C159.137094,33 162,29.8490439 162,25.1663469 M162,25.1663469 C162,20.7503054 159.607761,18.6763179 152.86281,17.2560362 C149.137334,16.4494855 148.235382,15.6434051 148.235382,14.4911898 C148.235382,13.0332847 149.568619,12.4176726 152.039142,12.4176726 C155.019715,12.4176726 157.960906,13.3008808 160.745047,14.5297537 L160.745047,8.73105391 C158.075371,7.54119814 155.167805,6.95084889 152.235094,7.00320126 C145.568427,7.00320126 142.117667,9.84470526 142.117667,14.4911898" id="Shape"></path>
                <polygon id="Shape" points="234 7 234 33 239.61936 33 239.61936 13.1735824 241.987839 18.4364911 249.935367 33 257 33 257 7 251.38064 7 251.38064 23.7793685 249.25304 18.9114566 242.870733 7"></polygon>
                <rect id="Rectangle-path" x="193" y="7" width="7" height="26"></rect>
                <path d="M187,25.1663469 C187,20.7503054 184.607761,18.6763179 177.86281,17.2560362 C174.137334,16.4494855 173.235382,15.6434051 173.235382,14.4911898 C173.235382,13.0332847 174.568619,12.4176726 177.039142,12.4176726 C180.019715,12.4176726 182.960906,13.3008808 185.745047,14.5297537 L185.745047,8.73105391 C183.075371,7.54119814 180.167805,6.95084889 177.235094,7.00320126 C170.568427,7.00320126 167.117667,9.84470526 167.117667,14.4911898 C167.117667,18.2159021 168.882189,21.1730979 175.784189,22.4786284 C179.902048,23.3251539 180.764618,23.976038 180.764618,25.3201324 C180.764618,26.6256628 179.900127,27.4707775 176.99976,27.4707775 C173.4943,27.40906 170.058924,26.4987923 167,24.8211526 L167,30.8879188 C169.078621,31.8863486 171.82338,33 176.921475,33 C184.137094,33 187,29.8490439 187,25.1663469" id="Shape"></path>
                <polygon id="Shape" points="95 7 95 33 107.095555 33 109 27.3803825 100.92295 27.3803825 100.92295 7"></polygon>
                <polygon id="Shape" points="70 7 70 12.6191328 76.7194307 12.6191328 76.7194307 33 82.8061768 33 82.8061768 12.6191328 90 12.6191328 90 7"></polygon>
                <path d="M61.9769332,7 L54.0259617,7 L45,33 L51.8928684,33 L53.1724349,28.6211087 C56.3238049,29.5506157 59.6747477,29.5506157 62.8261176,28.6211087 L64.1056841,33 L71,33 L61.9769332,7 Z M58.0012062,23.9325206 C56.8783995,23.9324552 55.7613759,23.7710444 54.6840796,23.4531932 L58.0012062,12.1068486 L61.3183328,23.4570704 C60.2408469,23.7736099 59.123827,23.9337145 58.0012062,23.9325206 Z" id="Shape"></path>
                <path d="M127.975506,7 L120.025459,7 L111,33 L117.893932,33 L119.173427,28.6211087 C122.324622,29.5506157 125.675378,29.5506157 128.826573,28.6211087 L130.106068,33 L137,33 L127.975506,7 Z M124.000482,23.9325206 C122.877738,23.9324552 121.760777,23.7710444 120.683541,23.4531932 L124.000482,12.1068486 L127.317424,23.4570704 C126.239998,23.7736099 125.123041,23.9337145 124.000482,23.9325206 Z" id="Shape"></path>
                <path d="M220.975191,7 L213.025292,7 L204,33 L210.893804,33 L212.173276,28.6211087 C215.324412,29.5506157 218.675106,29.5506157 221.826242,28.6211087 L223.105713,33 L230,33 L220.975191,7 Z M216.997829,23.9325206 C215.875106,23.9324552 214.758165,23.7710444 213.680949,23.4531932 L216.997829,12.1068486 L220.314709,23.4570704 C219.237303,23.7736099 218.120366,23.9337145 216.997829,23.9325206 Z" id="Shape"></path>
            </g>
        </g>
    </g>
</svg>